<svg width="60" height="60" xmlns="http://www.w3.org/2000/svg">

 <g>
  <title>background</title>
  <rect fill="none" id="canvas_background" height="402" width="582" y="-1" x="-1"/>
 </g>
 <g>
  <title fill="#ffe5b3">Layer 1</title>
  <path fill="#ffe5b3" d="m44,1l0,2.04c-0.33,-0.03 -0.66,-0.04 -1,-0.04s-0.67,0.01 -1,0.04l0,-2.04c0,-0.552285 0.447715,-1 1,-1s1,0.447715 1,1z" id="Shape"/>
  <path fill="#ffe5b3" d="m36.89,4.4c-0.600906,0.299288 -1.182089,0.636641 -1.74,1.01l-1.02,-1.77c-0.178633,-0.310821 -0.177875,-0.693331 0.001987,-1.003442s0.511505,-0.50071 0.87,-0.5s0.68938,0.192621 0.868013,0.503442l1.02,1.76z" id="Shape"/>
  <path fill="#ffe5b3" d="m31.41,9.15c-0.373358,0.557911 -0.710712,1.139094 -1.01,1.74l-1.76,-1.02c-0.310821,-0.178633 -0.502732,-0.509517 -0.503442,-0.868013c-0.00071,-0.358495 0.189889,-0.690137 0.5,-0.87s0.692621,-0.18062 1.003442,-0.001987l1.77,1.02z" id="Shape"/>
  <path fill="#ffe5b3" d="m29,17c0,0.34 0.01,0.67 0.04,1l-2.04,0c-0.552285,0 -1,-0.447715 -1,-1s0.447715,-1 1,-1l2.04,0c-0.03,0.33 -0.04,0.66 -0.04,1z" id="Shape"/>
  <path fill="#ffe5b3" d="m31.41,24.85l-1.77,1.02c-0.477979,0.271388 -1.085391,0.106136 -1.36,-0.37c-0.275749,-0.478153 -0.115189,-1.089174 0.36,-1.37l1.76,-1.02c0.299288,0.600906 0.636642,1.182089 1.01,1.74z" id="Shape"/>
  <path fill="#ffe5b3" d="m36.89,29.6l-1.02,1.76c-0.132284,0.231193 -0.351903,0.399548 -0.60952,0.467243c-0.257617,0.067695 -0.53163,0.029053 -0.76048,-0.107243c-0.476136,-0.274608 -0.641388,-0.882021 -0.37,-1.36l1.02,-1.77c0.557911,0.373359 1.139094,0.710712 1.74,1.01z" id="Shape"/>
  <path fill="#ffe5b3" d="m44,30.96l0,2.04c0,0.552285 -0.447715,1 -1,1s-1,-0.447715 -1,-1l0,-2.04c0.33,0.03 0.66,0.04 1,0.04s0.67,-0.01 1,-0.04z" id="Shape"/>
  <path fill="#ffe5b3" d="m51.5,31.72c-0.22885,0.136296 -0.502863,0.174938 -0.76048,0.107243c-0.257617,-0.067695 -0.477236,-0.23605 -0.60952,-0.467243l-1.02,-1.76c0.600906,-0.299288 1.182089,-0.636642 1.74,-1.01l1.02,1.77c0.271388,0.477979 0.106136,1.085391 -0.37,1.36z" id="Shape"/>
  <path fill="#ffe5b3" d="m57.72,25.5c-0.274609,0.476136 -0.882021,0.641388 -1.36,0.37l-1.77,-1.02c0.373358,-0.557911 0.710712,-1.139094 1.01,-1.74l1.76,1.02c0.475189,0.280826 0.635749,0.891847 0.36,1.37z" id="Shape"/>
  <path fill="#ffe5b3" d="m60,17c0,0.552285 -0.447715,1 -1,1l-2.04,0c0.03,-0.33 0.04,-0.66 0.04,-1s-0.01,-0.67 -0.04,-1l2.04,0c0.552285,0 1,0.447715 1,1z" id="Shape"/>
  <path fill="#ffe5b3" d="m57.36,9.87l-1.76,1.02c-0.293245,-0.604141 -0.630836,-1.185732 -1.01,-1.74l1.77,-1.02c0.480488,-0.276142 1.093858,-0.110488 1.37,0.37s0.110488,1.093858 -0.37,1.37z" id="Shape"/>
  <path fill="#ffe5b3" d="m51.87,3.64l-1.02,1.77c-0.557911,-0.373359 -1.139094,-0.710712 -1.74,-1.01l1.02,-1.76c0.178633,-0.310821 0.509517,-0.502732 0.868013,-0.503442s0.690137,0.189889 0.87,0.5s0.18062,0.692621 0.001987,1.003442z" id="Shape"/>
  <circle fill="#ffe5b3" r="2" cy="20" cx="47" id="Oval"/>
  <circle fill="#ffe5b3" r="1" cy="14" cx="39" id="Oval"/>
  <path fill="#ffe5b3" d="m43,5c-6.627417,0 -12,5.372583 -12,12s5.372583,12 12,12s12,-5.372583 12,-12s-5.372583,-12 -12,-12zm-4,17c-0.552285,0 -1,-0.447715 -1,-1s0.447715,-1 1,-1s1,0.447715 1,1s-0.447715,1 -1,1zm0,-5c-1.656854,0 -3,-1.343146 -3,-3s1.343146,-3 3,-3s3,1.343146 3,3s-1.343146,3 -3,3zm6,-7c0.552285,0 1,0.447715 1,1s-0.447715,1 -1,1s-1,-0.447715 -1,-1s0.447715,-1 1,-1zm2,14c-2.209139,0 -4,-1.790861 -4,-4s1.790861,-4 4,-4s4,1.790861 4,4s-1.790861,4 -4,4z" id="Shape"/>
  <path fill="#ffe5b3" d="m18,21l0,2.04c-0.33,-0.03 -0.66,-0.04 -1,-0.04s-0.67,0.01 -1,0.04l0,-2.04c0,-0.552285 0.447715,-1 1,-1s1,0.447715 1,1z" id="Shape"/>
  <path fill="#ffe5b3" d="m10.89,24.4c-0.600906,0.299288 -1.182089,0.636641 -1.74,1.01l-1.02,-1.77c-0.276142,-0.480488 -0.110488,-1.093858 0.37,-1.37s1.093858,-0.110488 1.37,0.37l1.02,1.76z" id="Shape"/>
  <path fill="#ffe5b3" d="m5.41,29.15c-0.373359,0.557911 -0.710712,1.139094 -1.01,1.74l-1.76,-1.02c-0.480488,-0.276142 -0.646142,-0.889512 -0.37,-1.37s0.889512,-0.646142 1.37,-0.37l1.77,1.02z" id="Shape"/>
  <path fill="#ffe5b3" d="m3,37c0,0.34 0.01,0.67 0.04,1l-2.04,0c-0.552285,0 -1,-0.447715 -1,-1s0.447715,-1 1,-1l2.04,0c-0.03,0.33 -0.04,0.66 -0.04,1z" id="Shape"/>
  <path fill="#ffe5b3" d="m5.41,44.85l-1.77,1.02c-0.477979,0.271388 -1.085392,0.106136 -1.36,-0.37c-0.275749,-0.478153 -0.115189,-1.089174 0.36,-1.37l1.76,-1.02c0.299288,0.600906 0.636641,1.182089 1.01,1.74z" id="Shape"/>
  <path fill="#ffe5b3" d="m10.89,49.6l-1.02,1.76c-0.132284,0.231193 -0.351903,0.399548 -0.60952,0.467243c-0.257617,0.067695 -0.53163,0.029053 -0.76048,-0.107243c-0.476136,-0.274609 -0.641388,-0.882021 -0.37,-1.36l1.02,-1.77c0.557911,0.373358 1.139094,0.710712 1.74,1.01z" id="Shape"/>
  <path fill="#ffe5b3" d="m18,50.96l0,2.04c0,0.552285 -0.447715,1 -1,1s-1,-0.447715 -1,-1l0,-2.04c0.33,0.03 0.66,0.04 1,0.04s0.67,-0.01 1,-0.04z" id="Shape"/>
  <path fill="#ffe5b3" d="m25.5,51.72c-0.22885,0.136296 -0.502863,0.174938 -0.76048,0.107243c-0.257617,-0.067695 -0.477236,-0.23605 -0.60952,-0.467243l-1.02,-1.76c0.600906,-0.299288 1.182089,-0.636642 1.74,-1.01l1.02,1.77c0.271388,0.477979 0.106136,1.085392 -0.37,1.36z" id="Shape"/>
  <path fill="#ffe5b3" d="m31.72,45.5c-0.274609,0.476136 -0.882021,0.641388 -1.36,0.37l-1.77,-1.02c0.373358,-0.557911 0.710712,-1.139094 1.01,-1.74l1.76,1.02c0.475189,0.280826 0.63575,0.891847 0.36,1.37z" id="Shape"/>
  <path fill="#ffe5b3" d="m34,37c0,0.552285 -0.447715,1 -1,1l-2.04,0c0.03,-0.33 0.04,-0.66 0.04,-1s-0.01,-0.67 -0.04,-1l2.04,0c0.552285,0 1,0.447715 1,1z" id="Shape"/>
  <path fill="#ffe5b3" d="m31.36,29.87l-1.76,1.02c-0.293246,-0.604141 -0.630836,-1.185732 -1.01,-1.74l1.77,-1.02c0.480488,-0.276142 1.093858,-0.110488 1.37,0.37s0.110488,1.093858 -0.37,1.37z" id="Shape"/>
  <path fill="#ffe5b3" d="m25.87,23.64l-1.02,1.77c-0.557911,-0.373358 -1.139094,-0.710712 -1.74,-1.01l1.02,-1.76c0.276142,-0.480488 0.889512,-0.646142 1.37,-0.37c0.480488,0.276142 0.646142,0.889512 0.37,1.37z" id="Shape"/>
  <circle fill="#ffe5b3" r="1" cy="34" cx="13" id="Oval"/>
  <circle fill="#ffe5b3" r="2" cy="40" cx="21" id="Oval"/>
  <path fill="#ffe5b3" d="m17,25c-6.627417,0 -12,5.372583 -12,12s5.372583,12 12,12s12,-5.372583 12,-12s-5.372583,-12 -12,-12zm-4,17c-0.552285,0 -1,-0.447715 -1,-1s0.447715,-1 1,-1s1,0.447715 1,1s-0.447715,1 -1,1zm0,-5c-1.656854,0 -3,-1.343146 -3,-3s1.343146,-3 3,-3s3,1.343146 3,3s-1.343146,3 -3,3zm6,-7c0.552285,0 1,0.447715 1,1s-0.447715,1 -1,1s-1,-0.447715 -1,-1s0.447715,-1 1,-1zm2,14c-2.209139,0 -4,-1.790861 -4,-4s1.790861,-4 4,-4s4,1.790861 4,4s-1.790861,4 -4,4z" id="Shape"/>
  <path fill="#ffe5b3" d="m48,35l0,1.05c-0.33,-0.03 -0.66,-0.05 -1,-0.05s-0.67,0.02 -1,0.05l0,-1.05c0,-0.552285 0.447715,-1 1,-1s1,0.447715 1,1z" id="Shape"/>
  <path fill="#ffe5b3" d="m42.39,37.01c-0.612478,0.277318 -1.195428,0.615696 -1.74,1.01l-0.52,-0.91c-0.276142,-0.480488 -0.110488,-1.093858 0.37,-1.37c0.480488,-0.276142 1.093858,-0.110488 1.37,0.37l0.52,0.9z" id="Shape"/>
  <path fill="#ffe5b3" d="m38.02,40.65c-0.394304,0.544572 -0.732682,1.127522 -1.01,1.74l-0.9,-0.52c-0.480488,-0.276142 -0.646142,-0.889512 -0.37,-1.37c0.276142,-0.480488 0.889512,-0.646142 1.37,-0.37l0.91,0.52z" id="Shape"/>
  <path fill="#ffe5b3" d="m36,47c0,0.34 0.02,0.67 0.05,1l-1.05,0c-0.552285,0 -1,-0.447715 -1,-1s0.447715,-1 1,-1l1.05,0c-0.03,0.33 -0.05,0.66 -0.05,1z" id="Shape"/>
  <path fill="#ffe5b3" d="m38.02,53.35l-0.91,0.52c-0.480488,0.276142 -1.093858,0.110488 -1.37,-0.37c-0.276142,-0.480488 -0.110488,-1.093858 0.37,-1.37l0.9,-0.52c0.277318,0.612478 0.615696,1.195428 1.01,1.74z" id="Shape"/>
  <path fill="#ffe5b3" d="m42.39,56.99l-0.52,0.9c-0.178633,0.310821 -0.509517,0.502732 -0.868013,0.503442s-0.690137,-0.189889 -0.87,-0.5s-0.18062,-0.692621 -0.001987,-1.003442l0.52,-0.91c0.544572,0.394304 1.127522,0.732683 1.74,1.01z" id="Shape"/>
  <path fill="#ffe5b3" d="m48,57.95l0,1.05c0,0.552285 -0.447715,1 -1,1s-1,-0.447715 -1,-1l0,-1.05c0.33,0.03 0.66,0.05 1,0.05s0.67,-0.02 1,-0.05z" id="Shape"/>
  <path fill="#ffe5b3" d="m53.5,58.26c-0.481197,0.270571 -1.09044,0.106031 -1.37,-0.37l-0.52,-0.9c0.612478,-0.277318 1.195428,-0.615696 1.74,-1.01l0.52,0.91c0.2723,0.480979 0.107416,1.091499 -0.37,1.37z" id="Shape"/>
  <path fill="#ffe5b3" d="m58.26,53.5c-0.279559,0.476031 -0.888803,0.640571 -1.37,0.37l-0.91,-0.52c0.394304,-0.544572 0.732683,-1.127522 1.01,-1.74l0.9,0.52c0.23144,0.131951 0.40066,0.350799 0.470122,0.607996c0.069462,0.257198 0.033423,0.53148 -0.100122,0.762004z" id="Shape"/>
  <path fill="#ffe5b3" d="m60,47c0,0.552285 -0.447715,1 -1,1l-1.05,0c0.03,-0.33 0.05,-0.66 0.05,-1s-0.02,-0.67 -0.05,-1l1.05,0c0.552285,0 1,0.447715 1,1z" id="Shape"/>
  <path fill="#ffe5b3" d="m57.89,41.87l-0.9,0.52c-0.277318,-0.612478 -0.615696,-1.195428 -1.01,-1.74l0.91,-0.52c0.480488,-0.276142 1.093858,-0.110488 1.37,0.37s0.110488,1.093858 -0.37,1.37z" id="Shape"/>
  <path fill="#ffe5b3" d="m53.87,37.11l-0.52,0.91c-0.544572,-0.394304 -1.127522,-0.732683 -1.74,-1.01l0.52,-0.9c0.178633,-0.310821 0.509517,-0.502732 0.868013,-0.503442c0.358495,-0.00071 0.690137,0.189889 0.87,0.5c0.179862,0.310111 0.18062,0.692621 0.001987,1.003442z" id="Shape"/>
  <path fill="#ffe5b3" d="m47,38c-3.64016,0 -6.921887,2.19278 -8.314916,5.555849s-0.623027,7.23413 1.950955,9.808112c2.573982,2.573982 6.445042,3.343984 9.808112,1.950955s5.555849,-4.674756 5.555849,-8.314916c0,-4.970563 -4.029437,-9 -9,-9zm-5,6c0,-0.552285 0.447715,-1 1,-1s1,0.447715 1,1s-0.447715,1 -1,1s-1,-0.447715 -1,-1zm2,7c-0.552285,0 -1,-0.447715 -1,-1s0.447715,-1 1,-1s1,0.447715 1,1s-0.447715,1 -1,1zm4,-7c-0.552285,0 -1,-0.447715 -1,-1s0.447715,-1 1,-1s1,0.447715 1,1s-0.447715,1 -1,1zm3,6c-0.552285,0 -1,-0.447715 -1,-1s0.447715,-1 1,-1s1,0.447715 1,1s-0.447715,1 -1,1z" id="Shape"/>
 </g>
</svg>